<svg id="Filled_Expand" height="512" viewBox="0 0 64 64" width="512" xmlns="http://www.w3.org/2000/svg" data-name="Filled Expand"><path d="m9 16.571a2.571 2.571 0 0 0 2.571 2.572h4.858a2.571 2.571 0 0 1 2.571 2.571 2.572 2.572 0 0 1 -2.571 2.572h-10.858a2.571 2.571 0 0 0 -2.571 2.571 2.572 2.572 0 0 0 2.571 2.572h11.858a2.571 2.571 0 0 1 2.571 2.571 2.571 2.571 0 0 1 -2.571 2.571h-2.858a2.572 2.572 0 0 0 -2.571 2.572 2.571 2.571 0 0 0 2.571 2.571h6.858a2.572 2.572 0 0 1 2.571 2.572 2.571 2.571 0 0 1 -2.571 2.571h-17.858a2.571 2.571 0 0 0 -2.571 2.572 2.571 2.571 0 0 0 2.571 2.571h41.429a18 18 0 0 0 18-18 18 18 0 0 0 -18-18h-33.429a2.571 2.571 0 0 0 -2.571 2.571z" fill="#fff575"/><g fill="#ffd83f"><path d="m56.448 18.109a17.908 17.908 0 0 0 -8.448-2.109h-33.057a3.019 3.019 0 0 0 -2.612 1.422 2.214 2.214 0 0 0 -.262 1.721h6.36a3.571 3.571 0 0 1 3.571 3.571 3.571 3.571 0 0 1 -3.571 3.572h-9.486a3.019 3.019 0 0 0 -2.612 1.422 2.214 2.214 0 0 0 -.262 1.721h13.158a3.708 3.708 0 0 1 3.773 3.379 3.571 3.571 0 0 1 -3.566 3.763h-1.484a3.027 3.027 0 0 0 -2.619 1.429 2.208 2.208 0 0 0 -.262 1.718h8.157a3.71 3.71 0 0 1 3.718 2.932 3.574 3.574 0 0 1 -3.515 4.211h-16.858a2.571 2.571 0 0 0 -2.571 2.568 2.557 2.557 0 0 0 .069.571h40.931a18 18 0 0 0 18-18 17.964 17.964 0 0 0 -6.552-13.891z"/><circle cx="3" cy="16.571" r="2"/><circle cx="6" cy="37.143" r="2"/></g><circle cx="45" cy="32" fill="#d7184a" r="12"/><ellipse cx="44" cy="31" fill="#f01d64" rx="11.909" ry="10.586" transform="matrix(.707 -.707 .707 .707 -9.033 40.192)"/><path d="m45 13h-33.429a3.572 3.572 0 0 0 0 7.143h4.858a1.572 1.572 0 0 1 0 3.143h-10.858a3.572 3.572 0 0 0 0 7.143h11.858a1.571 1.571 0 1 1 0 3.142h-2.858a3.572 3.572 0 0 0 0 7.143h6.858a1.572 1.572 0 0 1 0 3.143h-17.858a3.572 3.572 0 0 0 0 7.143h41.429a19 19 0 0 0 0-38zm0 36h-41.429a1.572 1.572 0 0 1 0-3.143h17.858a3.572 3.572 0 0 0 0-7.143h-6.858a1.572 1.572 0 0 1 0-3.143h2.858a3.571 3.571 0 1 0 0-7.142h-11.858a1.572 1.572 0 0 1 0-3.143h10.858a3.572 3.572 0 0 0 0-7.143h-4.858a1.572 1.572 0 0 1 0-3.143h33.429a17 17 0 0 1 0 34z"/><path d="m3 19.571a3 3 0 1 0 -3-3 3 3 0 0 0 3 3zm0-4a1 1 0 1 1 -1 1 1 1 0 0 1 1-1z"/><path d="m6 40.143a3 3 0 1 0 -3-3 3 3 0 0 0 3 3zm0-4a1 1 0 1 1 -1 1 1 1 0 0 1 1-1z"/><path d="m45 19a13 13 0 1 0 13 13 13.015 13.015 0 0 0 -13-13zm0 24a10.919 10.919 0 0 1 -5.356-1.4l1.113-1.114a1 1 0 0 0 0-1.414 1 1 0 0 0 -1.414 0l-1.376 1.377a11.054 11.054 0 0 1 -1.415-1.414l1.377-1.377a1 1 0 0 0 0-1.414 1 1 0 0 0 -1.414 0l-1.115 1.112a10.987 10.987 0 0 1 14.956-14.956l-1.113 1.114a1 1 0 0 0 0 1.414 1 1 0 0 0 1.414 0l1.376-1.377a11.054 11.054 0 0 1 1.415 1.414l-1.377 1.377a1 1 0 0 0 0 1.414 1 1 0 0 0 1.414 0l1.115-1.112a10.987 10.987 0 0 1 -9.6 16.356z"/><rect height="2" rx="1" transform="matrix(.707 -.707 .707 .707 -12.508 41.582)" width="4.999" x="41.44" y="34.889"/><rect height="2" rx="1" transform="matrix(.707 -.707 .707 .707 -7.561 43.62)" width="5" x="46.389" y="29.939"/><rect height="2" rx="1" transform="matrix(.707 -.707 .707 .707 -11.336 38.753)" width="5" x="38.611" y="32.06"/><rect height="2" rx="1" transform="matrix(.707 -.707 .707 .707 -6.387 40.803)" width="4.999" x="43.561" y="27.111"/></svg>