<svg height="512" viewBox="23 20 80 80" width="512" xmlns="http://www.w3.org/2000/svg"><g><path d="m68.083 100.251v-4.006a32.552 32.552 0 0 0 28.245-28.245h4.006a4 4 0 0 0 0-8h-4.006a32.552 32.552 0 0 0 -28.245-28.245v-4.006a4 4 0 1 0 -8 0v4.006a32.554 32.554 0 0 0 -28.245 28.245h-4.006a4 4 0 1 0 0 8h4.006a32.554 32.554 0 0 0 28.245 28.245v4.006a4 4 0 0 0 8 0zm-28.168-32.251h3.419a4 4 0 0 0 0-8h-3.419a24.555 24.555 0 0 1 20.168-20.168v3.419a4 4 0 1 0 8 0v-3.419a24.555 24.555 0 0 1 20.169 20.168h-3.42a4 4 0 0 0 0 8h3.42a24.555 24.555 0 0 1 -20.169 20.168v-3.419a4 4 0 0 0 -8 0v3.419a24.555 24.555 0 0 1 -20.168-20.168z" fill="#f46060"/><circle cx="64.083" cy="64" fill="#e84d4d" r="9.483"/><g fill="#102b5b"><path d="m79.771 37.572q.582.346 1.146.716a1.75 1.75 0 0 0 1.916-2.928c-.417-.273-.842-.54-1.271-.8a1.75 1.75 0 0 0 -1.791 3.008z"/><path d="m100.334 58.25h-2.5a34.381 34.381 0 0 0 -9.692-18.588 1.75 1.75 0 1 0 -2.461 2.488 30.835 30.835 0 0 1 8.9 18.064 1.75 1.75 0 0 0 1.737 1.536h4.006a2.25 2.25 0 0 1 0 4.5h-3.996a1.75 1.75 0 0 0 -1.737 1.536 30.672 30.672 0 0 1 -26.722 26.722 1.75 1.75 0 0 0 -1.536 1.737v4.006a2.25 2.25 0 0 1 -4.5 0v-4.006a1.749 1.749 0 0 0 -1.533-1.737 30.674 30.674 0 0 1 -26.725-26.722 1.75 1.75 0 0 0 -1.737-1.536h-4.005a2.25 2.25 0 0 1 0-4.5h4.005a1.75 1.75 0 0 0 1.737-1.536 30.674 30.674 0 0 1 26.725-26.722 1.749 1.749 0 0 0 1.535-1.737v-4.006a2.25 2.25 0 1 1 4.5 0v4.006a1.749 1.749 0 0 0 1.536 1.736 30.7 30.7 0 0 1 5.929 1.344 1.75 1.75 0 0 0 1.109-3.32 34.19 34.19 0 0 0 -5.08-1.272v-2.494a5.75 5.75 0 1 0 -11.5 0v2.493a34.165 34.165 0 0 0 -28.003 28.008h-2.493a5.75 5.75 0 0 0 0 11.5h2.493a34.165 34.165 0 0 0 28.007 28.008v2.493a5.75 5.75 0 0 0 11.5 0v-2.493a34.165 34.165 0 0 0 28.008-28.008h2.493a5.75 5.75 0 0 0 0-11.5z"/><path d="m84.833 61.75h3.418a1.75 1.75 0 0 0 1.727-2.035 26.219 26.219 0 0 0 -21.61-21.615 1.751 1.751 0 0 0 -2.035 1.727v3.419a2.25 2.25 0 1 1 -4.5 0v-3.414a1.75 1.75 0 0 0 -2.033-1.732 26.221 26.221 0 0 0 -21.611 21.61 1.751 1.751 0 0 0 1.727 2.035h3.419a2.25 2.25 0 0 1 0 4.5h-3.42a1.751 1.751 0 0 0 -1.727 2.035 26.221 26.221 0 0 0 21.612 21.62 1.75 1.75 0 0 0 2.034-1.727v-3.424a2.25 2.25 0 0 1 4.5 0v3.419a1.751 1.751 0 0 0 1.75 1.75 1.825 1.825 0 0 0 .285-.023 26.219 26.219 0 0 0 21.61-21.61 1.75 1.75 0 0 0 -1.727-2.035h-3.419a2.25 2.25 0 0 1 0-4.5zm0 8h1.26a22.72 22.72 0 0 1 -16.26 16.26v-1.261a5.75 5.75 0 0 0 -11.5 0v1.261a22.724 22.724 0 0 1 -16.26-16.26h1.261a5.75 5.75 0 0 0 0-11.5h-1.261a22.724 22.724 0 0 1 16.26-16.26v1.261a5.75 5.75 0 1 0 11.5 0v-1.261a22.72 22.72 0 0 1 16.26 16.26h-1.26a5.75 5.75 0 0 0 0 11.5z"/><path d="m56.141 56.057a11.237 11.237 0 0 0 11.876 18.467 1.75 1.75 0 0 0 -1.224-3.279 7.734 7.734 0 1 1 3.96-3.328 1.75 1.75 0 0 0 3.017 1.775 11.234 11.234 0 0 0 -17.629-13.635z"/></g></g></svg>