<svg width="320" height="320" viewBox="0 0 320 320" fill="none" xmlns="http://www.w3.org/2000/svg">
<path d="M85.8976 143.702L12.9551 167.457L43.0376 188.067L30.4576 215.102L101.855 192.707L85.8976 143.702Z" fill="#329A86"/>
<path d="M64.9355 173.925L92.7855 164.855L101.856 192.707L64.9355 173.925Z" fill="#3EC1A7"/>
<path d="M234.103 143.702L307.046 167.457L276.963 188.067L289.543 215.102L218.146 192.707L234.103 143.702Z" fill="#329A86"/>
<path d="M255.066 173.925L227.216 164.855L218.146 192.707L255.066 173.925Z" fill="#3EC1A7"/>
<path d="M255.095 173.932C189.903 150.557 130.71 150.042 64.938 173.932L41.4805 130.052C121.703 96.4725 193.46 96.5525 278.553 130.052L255.095 173.932Z" fill="#69CFBB"/>
</svg>
